<svg width="1034" height="274" viewBox="0 0 1034 274" fill="none" xmlns="http://www.w3.org/2000/svg">
<path fill-rule="evenodd" clip-rule="evenodd" d="M732.634 39.2672L732.514 39.6209C731.935 41.2828 731.216 42.9108 730.374 44.471C729.454 46.1717 728.382 47.7997 727.165 49.3356L637.59 170.109V170.293C637.59 181.117 637.6 190.696 637.609 199.679L637.648 223.372L637.657 225.945C637.681 241.261 637.943 216.625 637.943 236.248V236.461C637.943 244.848 634.558 258.302 628.755 264.233C622.951 270.163 615.074 273.497 606.867 273.497C598.66 273.497 590.783 270.163 584.98 264.233C579.176 258.302 575.915 244.994 575.915 236.606L575.677 170.104L487.193 51.5451C482.051 45.033 479.676 36.7234 480.59 28.4429C481.5 20.1623 485.628 12.5843 492.063 7.38053C492.633 6.92023 493.222 6.47931 493.82 6.06262C499.954 1.77941 507.439 -0.139309 514.894 0.703766C523.077 1.62437 530.566 5.80098 535.709 12.313L606.935 110.11L681.403 12.5746C686.56 6.07715 694.049 1.49838 701.974 0.374278C708.864 -0.599619 715.702 0.88788 721.348 4.52667C722.19 5.06934 723.009 5.66531 723.794 6.30488C729.847 11.218 733.596 18.5101 734.228 26.5823C734.501 30.066 734.18 33.574 733.318 36.9511C733.117 37.7312 732.892 38.5016 732.634 39.2672Z" fill="black"/>
<path fill-rule="evenodd" clip-rule="evenodd" d="M701.871 0.286113C708.769 -0.678353 715.617 0.815184 721.275 4.46931C717.35 5.70475 712.381 10.9579 710.443 13.4374C670.022 70.331 647.36 102.229 606.939 159.123C573.326 111.91 505.86 16.7675 503.156 13.2873C500.452 9.8072 496.149 6.84762 494.192 5.81209C500.327 1.53515 507.09 -0.511233 514.556 0.343226C522.751 1.27632 530.255 5.46643 535.414 11.99C563.317 48.9701 578.961 69.7034 606.864 106.684C635.93 69.8885 652.226 49.259 681.292 12.464C686.446 5.96997 693.938 1.39937 701.871 0.286113Z" fill="black"/>
<path d="M185.342 49.2999C181.257 41.6126 180.214 32.5864 182.437 24.2011C184.286 17.2308 188.257 11.1817 193.695 6.9368C203.304 13.9213 215.027 35.4353 219.805 45.6296L306.641 232.946C331.804 180.982 387.111 70.5812 397.604 45.6296C408.097 20.6732 408.434 20.8362 421.705 6.2958C421.778 6.35278 421.869 6.40026 421.942 6.45723L422.079 6.5522C422.27 6.69464 422.461 6.84183 422.648 6.99377C424.811 8.71261 426.747 10.7353 428.405 13.0144C430.855 16.3904 432.64 20.2601 433.66 24.41C434.248 26.7936 434.571 29.2389 434.635 31.7032C434.681 33.5313 434.585 35.364 434.344 37.1921C433.774 41.4797 432.417 45.6296 430.349 49.4091L338.28 253.366C325.507 280.997 287.712 280.844 275.146 253.109L185.342 49.2999Z" fill="black"/>
<path d="M422.082 6.55131C421.282 5.96848 421.555 6.15808 421.282 5.96827C421.27 5.95921 421.275 5.96275 421.291 5.97485L422.082 6.55131Z" fill="black"/>
<path d="M421.282 5.96827C421.555 6.15808 421.282 5.96848 422.082 6.55131L421.291 5.97485C421.375 6.03899 421.771 6.34381 421.71 6.29589C415.343 13.2045 412.52 16.7838 409.605 21.1366C409.595 21.1515 409.585 21.1664 409.575 21.1813C406.246 26.1607 403.506 31.6421 397.912 44.9086C397.812 45.1465 397.711 45.3868 397.609 45.6297C387.116 70.5813 331.804 181.59 306.641 233.553L219.809 45.6297C215.032 35.4354 202.649 14.4464 193.039 7.4619C194.146 6.59773 195.977 5.28452 197.197 4.57705C204.429 0.398664 212.982 -0.555714 220.98 1.92758C228.982 4.40612 235.772 10.1134 239.857 17.7959L306.646 169.941L376.9 17.5918C378.968 13.817 381.71 10.4885 384.966 7.79631C386.847 6.2389 388.883 4.91418 391.023 3.84109C392.585 3.06239 394.207 2.41664 395.869 1.91333C399.813 0.716798 403.921 0.355946 407.952 0.840255C411.987 1.32456 415.872 2.6493 419.378 4.73849C420.03 5.12309 420.663 5.53618 421.282 5.96827Z" fill="black"/>
<path d="M1000.56 0.578286C996.171 0.578286 991.826 1.35514 987.765 2.8657C985.592 3.67612 983.529 4.68796 981.599 5.88201C979.928 6.91782 978.361 8.0927 976.918 9.38746C973.814 12.1784 971.352 15.4968 969.67 19.1461C968.765 21.117 968.093 23.1599 967.669 25.2507C967.306 27.0298 967.125 28.8377 967.125 30.6551V166.008C967.125 180.152 957.442 208.292 908.527 208.016C859.613 207.74 847.281 179.58 847.281 166.008V30.6551C847.281 30.6551 846.417 22.7954 844.736 19.1461C843.055 15.4968 840.592 12.1784 837.489 9.38746C835.771 7.84334 833.878 6.47664 831.84 5.30656C830.195 4.36187 828.457 3.54185 826.641 2.8657C822.58 1.35514 818.235 0.578286 813.844 0.578286V33.7242V167.85C813.844 192.163 834.12 239.061 908.527 239.061C984.53 239.061 1001.32 191.587 1000.56 167.85V33.7242V0.578286Z" fill="black"/>
<path d="M1024.85 207.605C1031.12 194.873 1034 181.632 1034 167.85V30.6551C1034 26.7037 1033.14 22.7954 1031.45 19.1461C1029.77 15.4968 1027.31 12.1784 1024.21 9.38746C1021.1 6.59653 1017.42 4.38105 1013.36 2.8657C1010.95 1.96896 1008.44 1.33117 1005.88 0.961919C1004.13 0.707762 1002.35 0.578286 1000.56 0.578286V33.7242V167.85C1001.32 191.587 984.53 239.061 908.527 239.061C834.12 239.061 813.844 192.163 813.844 167.85V33.7242V0.578286C802.655 0.349513 793.418 6.35575 790.198 9.38746C787.095 12.1784 784.633 15.4968 782.951 19.1461C781.27 22.7954 780.411 26.6893 780.406 30.6551L780.075 167.85C780.075 167.85 780.953 194.173 788.368 207.605C800.109 228.875 840.862 272.24 908.527 272.24C976.193 272.24 1014.39 229.013 1024.85 207.605Z" fill="black"/>
<path d="M100.024 4.72314L10.0736 67.4745C-0.531032 74.8216 -3.18745 89.3969 4.14032 100.029L109.053 26.2556V38.5179C109.053 53.4849 107.993 128.147 107.019 196.758L107.019 196.798C106.617 225.067 106.23 252.306 105.938 273.917C128.644 272.888 135.134 254.282 135.541 245.107V20.0287C135.185 18.0169 134.29 13.6868 133.557 12.4606L132.493 10.672C125.166 0.0394995 110.628 -2.6239 100.024 4.72314Z" fill="black"/>
<path d="M75.4205 245.107C76.1326 255.139 83.2331 274.946 105.938 273.917C106.23 252.306 106.617 225.067 107.019 196.798L107.019 196.758C107.993 128.147 109.053 53.4849 109.053 38.5179V26.2556L4.14032 100.029C9.33132 106.667 23.2966 117.445 37.63 107.459L75.4635 81.4358L75.4205 245.107Z" fill="black"/>
</svg>
